<svg width="16" height="16" viewBox="0 0 16 16" fill="none" xmlns="http://www.w3.org/2000/svg">
<g clip-path="url(#clip0_36_227)">
<path d="M9.50001 11C9.77616 11 10 11.2239 10 11.5C10 11.7761 9.77616 12 9.50001 12H6.50001C6.22387 12 6.00001 11.7761 6.00001 11.5C6.00001 11.2239 6.22387 11 6.50001 11H9.50001Z" fill="#414651"/>
<path d="M12.5 8C12.7762 8 13 8.22386 13 8.5C13 8.77614 12.7762 9 12.5 9H6.50001C6.22387 9 6.00001 8.77614 6.00001 8.5C6.00001 8.22386 6.22387 8 6.50001 8H12.5Z" fill="#414651"/>
<path d="M12.5 5C12.7762 5 13 5.22386 13 5.5C13 5.77614 12.7762 6 12.5 6H6.50001C6.22387 6 6.00001 5.77614 6.00001 5.5C6.00001 5.22386 6.22387 5 6.50001 5H12.5Z" fill="#414651"/>
<path fill-rule="evenodd" clip-rule="evenodd" d="M13.5 2C14.8812 2 16 3.11886 16 4.5V12.5C16 13.8811 14.8812 15 13.5 15H0.500014C0.319886 15 0.153217 14.9028 0.0644674 14.7461C-0.0240023 14.5895 -0.0211242 14.3975 0.0713033 14.2432L3.00001 9.36133V4.5C3.00001 3.11886 4.11888 2.00001 5.50001 2H13.5ZM5.50001 3C4.67117 3.00001 4.00001 3.67115 4.00001 4.5V9.5C4.00001 9.59051 3.97524 9.6792 3.92873 9.75684L1.38283 14H13.5C14.3289 14 15 13.3289 15 12.5V4.5C15 3.67114 14.3289 3 13.5 3H5.50001Z" fill="#414651"/>
</g>
<defs>
<clipPath id="clip0_36_227">
<rect width="16" height="16" fill="white"/>
</clipPath>
</defs>
</svg>
