<svg width="16" height="16" viewBox="0 0 16 16" fill="none" xmlns="http://www.w3.org/2000/svg">
<g clip-path="url(#clip0_36_228)">
<rect width="16" height="16" fill="#F5F5F5"/>
<path fill-rule="evenodd" clip-rule="evenodd" d="M14 0C15.1046 0 16 0.89543 16 2V14C16 15.1046 15.1046 16 14 16H2C0.89543 16 0 15.1046 0 14V2C0 0.89543 0.89543 0 2 0H14ZM8.5 8.5V15H14C14.5523 15 15 14.5523 15 14V8.5H8.5ZM1 14C1 14.5523 1.44772 15 2 15H7.5V8.5H1V14ZM8.5 7.5H15V2C15 1.44772 14.5523 1 14 1H8.5V7.5ZM2 1C1.44772 1 1 1.44772 1 2V7.5H7.5V1H2Z" fill="#414651"/>
</g>
<defs>
<clipPath id="clip0_36_228">
<rect width="16" height="16" fill="white"/>
</clipPath>
</defs>
</svg>
