<svg width="16" height="16" viewBox="0 0 16 16" fill="none" xmlns="http://www.w3.org/2000/svg">
<path d="M10 7.5C10 6.67157 9.32843 6 8.5 6C7.67157 6 7 6.67157 7 7.5C7 8.32843 7.67157 9 8.5 9C9.32843 9 10 8.32843 10 7.5Z" fill="#050505"/>
<path d="M5 7.5C5 6.67157 4.32843 6 3.5 6C2.67157 6 2 6.67157 2 7.5C2 8.32843 2.67157 9 3.5 9C4.32843 9 5 8.32843 5 7.5Z" fill="#050505"/>
<path d="M15 7.5C15 6.67157 14.3284 6 13.5 6C12.6716 6 12 6.67157 12 7.5C12 8.32843 12.6716 9 13.5 9C14.3284 9 15 8.32843 15 7.5Z" fill="#050505"/>
</svg>
