<svg width="16" height="16" viewBox="0 0 16 16" fill="none" xmlns="http://www.w3.org/2000/svg">
<path d="M8 12.0008V4.50082C10 2.50085 13 3.50082 13.5 4.00082V11.5008C11.9 10.3008 9.16667 11.3341 8 12.0008Z" fill="#E9EAEB"/>
<path d="M13.5 11.8108C12.8041 11.2152 11.9159 10.8919 11 10.9008C10.4181 10.8882 9.84174 11.0158 9.31958 11.2729C8.79741 11.5299 8.3448 11.9089 8 12.3778C7.6552 11.9089 7.20259 11.5299 6.68042 11.2729C6.15826 11.0158 5.58188 10.8882 5 10.9008C4.08469 10.8905 3.19662 11.212 2.5 11.8058V3.90082C3.19733 3.30881 4.08533 2.98913 5 3.00082C5.58184 2.98842 6.15813 3.11614 6.68025 3.3732C7.20238 3.63026 7.65502 4.00912 8 4.47782C8.34498 4.00912 8.79762 3.63026 9.31975 3.3732C9.84187 3.11614 10.4182 2.98842 11 3.00082C11.9147 2.98913 12.8027 3.30881 13.5 3.90082V11.8108Z" stroke="#535862" stroke-linecap="round" stroke-linejoin="round"/>
</svg>
